<svg xmlns="http://www.w3.org/2000/svg" width="64" height="64" viewBox="0 0 64 64">
  <defs>
    <linearGradient id="pinFill" x1="0" y1="0" x2="0" y2="1">
      <stop offset="0%" stop-color="#66f1ff"/>
      <stop offset="52%" stop-color="#1da6cb"/>
      <stop offset="100%" stop-color="#0f577c"/>
    </linearGradient>
    <linearGradient id="fishFill" x1="0" y1="0" x2="1" y2="1">
      <stop offset="0%" stop-color="#fff7d4"/>
      <stop offset="100%" stop-color="#ffd56a"/>
    </linearGradient>
  </defs>

  <path d="M32 4
           C21.2 4 12.5 12.5 12.5 23
           C12.5 35.7 22.8 45.2 29.5 52.8
           C30.8 54.2 33.2 54.2 34.5 52.8
           C41.2 45.2 51.5 35.7 51.5 23
           C51.5 12.5 42.8 4 32 4 Z"
        fill="#072033"/>

  <path d="M32 7
           C22.9 7 15.5 14.1 15.5 22.9
           C15.5 33.8 24.4 42.4 30.6 49.5
           C31.4 50.4 32.6 50.4 33.4 49.5
           C39.6 42.4 48.5 33.8 48.5 22.9
           C48.5 14.1 41.1 7 32 7 Z"
        fill="url(#pinFill)"/>

  <ellipse cx="31.5" cy="24" rx="11.5" ry="7.5" fill="#ffffff"/>
  <path d="M42 24
           L48.5 18.8
           L48.5 29.2 Z"
        fill="#ffffff"/>
  <path d="M31 17.2
           L36.8 12.8
           L35.8 19.8 Z"
        fill="#ffffff"/>
  <path d="M30.8 30
           L37.1 34.2
           L31.9 35.4 Z"
        fill="#ffffff"/>

  <ellipse cx="28.4" cy="23.5" rx="9.2" ry="5.4" fill="url(#fishFill)"/>
  <path d="M36 23.5
           L43 18.2
           L43 28.8 Z"
        fill="url(#fishFill)"/>
  <path d="M27.6 19.5
           L31.7 16
           L31.3 20.9 Z"
        fill="#ffb92b"/>
  <path d="M27.4 27.5
           L32.4 30.6
           L28.2 31.2 Z"
        fill="#ffb92b"/>
  <circle cx="23.8" cy="23" r="1.5" fill="#0d3953"/>
  <circle cx="23.2" cy="22.4" r="0.45" fill="#ffffff"/>

  <path d="M21.8 36.6
           C24.8 39.7 28.3 42.7 31 45.8"
        fill="none"
        stroke="#baf9ff"
        stroke-width="2.4"
        stroke-linecap="round"
        opacity="0.7"/>
</svg>
